<svg width="80" height="44" viewBox="0 0 80 44" fill="none" xmlns="http://www.w3.org/2000/svg">
<path fill-rule="evenodd" clip-rule="evenodd" d="M61.832 37.6721L61.832 43.5146L73.2858 36.48L61.832 29.4454L61.832 35.2879L24.5531 35.2879L17.8174 29.9387L4.7205 29.9387L7.93774 36.48L4.7205 43.0212L17.8174 43.0212L24.5531 37.6721L61.832 37.6721ZM77.9123 20.6621L77.9123 20.657C78.4722 20.6965 78.9685 20.521 79.3781 20.1389C79.7877 19.7563 80 19.2755 80 18.7127L80 17.0915C80 16.0801 79.2324 15.2407 78.2262 15.1524C69.9999 14.4169 70.3108 0.232327 54.2724 0.979872C44.768 1.42161 35.2415 0.979872 25.7276 0.979871C9.71628 -0.209403 9.99972 14.4169 1.77378 15.1524C0.766944 15.2413 -6.16982e-05 16.0801 -6.17424e-05 17.0915L-6.18133e-05 18.7127C-6.18379e-05 19.2755 0.209907 19.7563 0.621818 20.1389C1.03374 20.5216 1.52998 20.6966 2.08761 20.657L2.08761 20.6621L77.9129 20.6621L77.9123 20.6621ZM66.6438 17.6887L13.3565 17.6887C18.9524 14.5775 20.2012 10.2347 25.8263 10.2347L54.1713 10.2347C59.797 10.2347 61.0476 14.5769 66.6411 17.6887L66.6438 17.6887Z" fill="white"/>
</svg>
