<svg width="43" height="59" viewBox="0 0 43 59" fill="none" xmlns="http://www.w3.org/2000/svg">
<path d="M21.5024 58.8324L2.73304 47.8536L0 31.4949L0.646235 30.9897C0.678706 30.9643 4.19103 28.1386 4.58225 23.7789C4.84993 20.7964 3.6129 17.7244 0.905205 14.6485L0.560704 14.2572V4.12893L21.5024 0.442383L42.444 4.12893V14.2572L42.0995 14.6485C39.3918 17.7244 38.1556 20.7964 38.4233 23.7789C38.8137 28.1347 42.326 30.9643 42.3617 30.9921L43 31.4981L42.8693 32.3043L40.2733 47.8536L21.5024 58.8324ZM5.24195 46.1231L21.5024 55.6337L37.7628 46.1231L40.0183 32.6037C38.7638 31.4102 36.0759 28.3865 35.6744 24.0624C35.3362 20.4195 36.6834 16.7765 39.6809 13.2237V6.44461L21.5024 3.2467L3.32225 6.44461V13.2237C6.3198 16.7765 7.66692 20.4202 7.32875 24.0624C6.92723 28.3865 4.24013 31.4102 2.98488 32.6037L5.24195 46.1231Z" fill="white"/>
<path d="M21.2013 49.5868L8.52999 41.4962L6.7085 31.7742L6.88273 31.5303C7.14961 31.1691 13.349 22.5701 7.16387 13.0112L7.053 12.8401V9.16702L21.2084 6.44824L36.0584 9.16148V12.8504L35.9364 13.027C29.6435 22.1551 35.9617 31.158 36.2342 31.5374L36.406 31.775L34.5837 41.5089L21.2013 49.5868ZM9.77495 40.6528L21.2219 47.9602L33.3388 40.6425L34.9441 32.0894C33.9003 30.4698 28.6243 21.4225 34.678 12.4228V10.313L21.2147 7.85792L8.43417 10.3059V12.4315C14.3588 21.7963 9.21741 30.5007 8.16886 32.0933L9.77495 40.6528Z" fill="white"/>
<path d="M12.5571 14.7334C13.2871 14.7334 13.8789 14.1416 13.8789 13.4116C13.8789 12.6816 13.2871 12.0898 12.5571 12.0898C11.8271 12.0898 11.2354 12.6816 11.2354 13.4116C11.2354 14.1416 11.8271 14.7334 12.5571 14.7334Z" fill="white"/>
<path d="M30.0727 14.7334C30.8027 14.7334 31.3945 14.1416 31.3945 13.4116C31.3945 12.6816 30.8027 12.0898 30.0727 12.0898C29.3428 12.0898 28.751 12.6816 28.751 13.4116C28.751 14.1416 29.3428 14.7334 30.0727 14.7334Z" fill="white"/>
<path d="M12.5574 38.5283C13.2874 38.5283 13.8791 37.9365 13.8791 37.2065C13.8791 36.4765 13.2874 35.8848 12.5574 35.8848C11.8274 35.8848 11.2356 36.4765 11.2356 37.2065C11.2356 37.9365 11.8274 38.5283 12.5574 38.5283Z" fill="white"/>
<path d="M30.073 38.5283C30.803 38.5283 31.3948 37.9365 31.3948 37.2065C31.3948 36.4765 30.803 35.8848 30.073 35.8848C29.343 35.8848 28.7512 36.4765 28.7512 37.2065C28.7512 37.9365 29.343 38.5283 30.073 38.5283Z" fill="white"/>
<path d="M29.0757 33.4186C28.4469 32.831 27.8481 32.2766 27.2542 31.7175C25.6175 30.1753 24.0008 28.612 22.4042 27.0276C22.3052 26.9294 22.3037 26.8795 22.4042 26.79C22.5379 26.6739 22.6631 26.5485 22.7788 26.4146C22.8652 26.3156 22.9143 26.3275 23.0038 26.4146C24.4293 27.8401 25.8778 29.244 27.3492 30.6262C28.2845 31.5077 29.2277 32.3804 30.1686 33.2579C30.1559 33.3196 30.0941 33.3133 30.0553 33.3284C29.5935 33.4979 29.116 33.621 28.6298 33.6958C28.5947 33.7024 28.5585 33.7005 28.5243 33.6901C28.4902 33.6798 28.459 33.6614 28.4334 33.6364C26.1573 31.6906 23.9984 29.6204 21.8903 27.4948C21.8412 27.4441 21.7778 27.4101 21.8673 27.3253C21.9568 27.2406 21.9932 27.3214 22.0376 27.3657C23.2619 28.5885 24.4926 29.8057 25.7598 30.9842C26.6523 31.8141 27.5654 32.6211 28.4849 33.4202C28.5092 33.4469 28.5399 33.467 28.5741 33.4787C28.6083 33.4903 28.6449 33.4931 28.6805 33.4867C28.7993 33.4654 28.9189 33.4464 29.0757 33.4186Z" fill="white"/>
<path d="M30.0276 18.6121C29.7586 18.2576 29.4405 17.9432 29.0828 17.6784C28.9688 17.5928 28.8967 17.6142 28.8152 17.7267C28.7661 17.7948 28.7288 17.9136 28.6243 17.8993C28.4509 17.8763 28.3542 17.9785 28.2489 18.0799C27.0562 19.2752 25.8625 20.4692 24.6677 21.6619C24.5734 21.7569 24.4832 21.9114 24.377 21.924C24.2709 21.9367 24.1854 21.7656 24.0856 21.6761C24.0721 21.6643 24.0595 21.6508 24.0452 21.6389C23.8662 21.4805 23.6421 21.4805 23.4908 21.6461C23.4208 21.7197 23.3827 21.8181 23.3849 21.9197C23.3871 22.0214 23.4295 22.118 23.5027 22.1885C23.5906 22.2812 23.6817 22.3723 23.7783 22.4562C23.8464 22.5148 23.8393 22.5505 23.7783 22.6146C23.532 22.8585 23.2913 23.1096 23.0481 23.3575C22.9967 23.4105 22.9278 23.4691 22.9689 23.5444C23.022 23.6402 22.9547 23.6758 22.9072 23.7234C20.8235 25.83 18.732 27.9271 16.5818 29.9648C15.4137 31.0679 14.24 32.164 13.0283 33.2727C13.5448 33.4762 14.0829 33.6196 14.632 33.7004C14.7184 33.7139 14.7643 33.6592 14.8197 33.6125C16.6982 32.0011 18.5118 30.3195 20.2605 28.5677C21.507 27.3228 22.7517 26.076 23.9945 24.8273C24.0357 24.7869 24.0626 24.6967 24.145 24.7315C24.2638 24.7806 24.3256 24.7101 24.3953 24.6389C24.6107 24.4147 24.8348 24.1985 25.0439 23.9689C25.1444 23.858 25.2133 23.8216 25.3171 23.9617C25.3903 24.0517 25.4734 24.133 25.565 24.2041C25.6389 24.2699 25.7359 24.3037 25.8347 24.2982C25.9336 24.2927 26.0262 24.2483 26.0924 24.1748C26.1572 24.1051 26.1943 24.0141 26.1966 23.919C26.1989 23.8239 26.1664 23.7312 26.1051 23.6584C26.0436 23.5824 25.974 23.5134 25.8976 23.4525C25.7725 23.3567 25.7748 23.2941 25.892 23.1761C27.1476 21.9349 28.3981 20.687 29.6435 19.4325C29.7085 19.3684 29.8067 19.3042 29.7964 19.2148C29.7742 19.035 29.8795 18.9463 29.9999 18.8663C30.1203 18.7863 30.1005 18.7087 30.0276 18.6121ZM23.7253 24.8162C21.6598 26.8967 19.6071 28.9906 17.4641 30.9895C16.5731 31.8203 15.66 32.6265 14.7382 33.424C14.6297 33.5175 14.4768 33.5119 14.1703 33.401C14.7785 32.8332 15.3709 32.282 15.9617 31.7284C18.5316 29.3185 21.0302 26.8397 23.4972 24.3221C23.5764 24.2429 23.6231 24.2064 23.7213 24.3094C23.9692 24.5692 23.9755 24.5612 23.7253 24.8162ZM25.0502 22.1751C25.3717 22.2012 25.4256 22.2543 25.5499 22.6503C25.2426 22.6257 25.085 22.4586 25.0502 22.1751ZM25.5689 21.6302C26.0211 21.7688 25.9277 21.6856 26.0758 22.1101C25.7487 22.0777 25.7036 22.0365 25.5673 21.631L25.5689 21.6302ZM26.1011 21.1059C26.406 21.1313 26.5684 21.296 26.6016 21.5811C26.2928 21.5589 26.227 21.4995 26.0995 21.1059H26.1011ZM26.6349 20.5761C26.943 20.6038 27.0982 20.7702 27.1315 21.0568C26.7735 20.9903 26.7513 20.9697 26.6341 20.5761H26.6349ZM27.1639 20.0518C27.5148 20.1073 27.5385 20.131 27.6739 20.5413C27.2012 20.3924 27.3184 20.4732 27.1623 20.0518H27.1639ZM27.6858 19.5101C28.1428 19.6567 28.0422 19.5656 28.1951 19.9932C27.8664 19.9584 27.822 19.9196 27.6842 19.5101H27.6858ZM28.2259 18.9875C28.5198 19.012 28.6869 19.1712 28.7201 19.4674C28.4184 19.4523 28.2608 19.2837 28.2244 18.9875H28.2259ZM28.7565 18.4624C29.067 18.4822 29.2127 18.6604 29.2499 18.9431C28.8722 18.8544 28.8595 18.8425 28.755 18.4632L28.7565 18.4624Z" fill="white"/>
<path d="M21.3877 24.7909C21.0258 24.4377 20.671 24.0781 20.317 23.7154C20.2821 23.679 20.2029 23.6568 20.2512 23.5697C20.2996 23.4826 20.237 23.4113 20.1721 23.3495C19.9345 23.112 19.7056 22.868 19.4664 22.6368C19.3912 22.5623 19.3714 22.5148 19.4664 22.4404C19.5599 22.3622 19.6475 22.2772 19.7286 22.1862C19.8002 22.1141 19.8404 22.0165 19.8404 21.9149C19.8404 21.8133 19.8002 21.7158 19.7286 21.6437C19.6941 21.6073 19.6529 21.5781 19.6071 21.5578C19.5613 21.5374 19.512 21.5263 19.4619 21.5252C19.4119 21.524 19.3621 21.5327 19.3154 21.5509C19.2687 21.5691 19.2261 21.5963 19.19 21.631C19.115 21.6934 19.0451 21.7617 18.981 21.8353C18.8946 21.9407 18.8384 21.9462 18.7323 21.8401C17.4789 20.5772 16.2213 19.3177 14.9594 18.0617C14.8913 17.9943 14.8311 17.8906 14.7218 17.9033C14.5579 17.9254 14.4731 17.8344 14.405 17.7187C14.3369 17.6031 14.2466 17.5999 14.1381 17.6791C13.7863 17.942 13.4719 18.2516 13.2036 18.5994C13.1126 18.715 13.1244 18.7918 13.2432 18.8813C13.3137 18.9336 13.4357 18.9677 13.4198 19.0904C13.4008 19.2377 13.4792 19.328 13.5727 19.4222C14.8118 20.6598 16.0507 21.8976 17.2893 23.1357C17.4715 23.3179 17.4707 23.3171 17.2893 23.4976C17.1698 23.6164 17.0217 23.7194 17.0383 23.8984C17.0331 23.9756 17.0521 24.0525 17.0927 24.1184C17.1333 24.1843 17.1935 24.2358 17.2648 24.2658C17.331 24.2988 17.4057 24.3104 17.4788 24.299C17.5518 24.2877 17.6196 24.254 17.6726 24.2025C17.7748 24.1155 17.8709 24.0215 17.9601 23.9213C18.0314 23.8421 18.0734 23.8524 18.1423 23.9261C18.3759 24.174 18.6174 24.4147 18.855 24.6594C18.9073 24.7133 18.9627 24.7822 19.0396 24.745C19.133 24.6998 19.1694 24.7592 19.2185 24.8083L20.2988 25.8988C20.3415 25.9416 20.3693 26.0089 20.4524 25.9281C20.5356 25.8474 20.4928 25.8141 20.4366 25.7579C20.1198 25.4411 19.8109 25.1243 19.4981 24.8075C19.2605 24.5628 19.2605 24.5699 19.5052 24.3141C19.5947 24.2223 19.6414 24.2231 19.7301 24.3141C20.0794 24.68 20.4429 25.0348 20.7906 25.3991C20.8626 25.4736 20.9046 25.4783 20.9759 25.3991C21.1074 25.2558 21.2452 25.1172 21.3893 24.9857C21.4685 24.9144 21.4709 24.8717 21.3877 24.7909ZM13.9821 18.955C14.0083 18.6556 14.1667 18.4893 14.4803 18.4576C14.3591 18.8283 14.3591 18.8283 13.9821 18.955ZM14.5096 19.4603C14.5413 19.172 14.7123 19.016 14.9998 18.9851C14.919 19.3518 14.8208 19.4444 14.5096 19.4603ZM15.0529 20.0012C15.0671 19.7168 15.1479 19.6297 15.528 19.507C15.4971 19.8095 15.338 19.9734 15.0529 20.0012ZM15.57 20.5262C15.5985 20.2379 15.7601 20.074 16.0452 20.051C16.0222 20.3639 15.9145 20.4724 15.57 20.5262ZM16.1014 21.0671C16.1283 20.7598 16.2946 20.6054 16.5837 20.5769C16.5124 20.9317 16.4895 20.9555 16.1014 21.0671ZM16.6106 21.5906C16.7627 21.1891 16.7627 21.1891 17.1183 21.1059C17.0882 21.4045 16.925 21.5661 16.6106 21.5906ZM17.1713 22.1196C17.1856 21.8124 17.2917 21.7031 17.6465 21.6445C17.614 21.9272 17.4564 22.0919 17.1713 22.1196ZM17.6845 22.6495C17.7194 22.3564 17.8809 22.1909 18.1747 22.1632C18.1526 22.4586 17.9878 22.6202 17.6853 22.6495H17.6845Z" fill="white"/>
</svg>
