<svg width="57" height="57" viewBox="0 0 57 57" fill="none" xmlns="http://www.w3.org/2000/svg">
<path d="M22.2656 41.8594L16.7849 40.0325C15.9735 39.7615 15.9735 38.613 16.7849 38.3425L22.2656 36.5156L24.0925 31.0349C24.3635 30.2235 25.512 30.2235 25.7825 31.0349L27.6094 36.5156L33.0901 38.3425C33.9015 38.6135 33.9015 39.762 33.0901 40.0325L27.6094 41.8594L26.7188 46.3125H49.875L40.2585 23.8687C39.566 22.2656 39.4992 20.4621 40.0559 18.8033L46.3125 0L25.4273 11.9455C22.8 13.4484 20.6068 15.7418 19.4824 18.525L7.125 46.3125H23.1562L22.2656 41.8594ZM25.7391 19.193L28.5 17.8125L29.8827 15.0471C30.0471 14.7188 30.515 14.7188 30.6794 15.0471L32.0625 17.8125L34.8279 19.1952C35.1562 19.3596 35.1562 19.8275 34.8279 19.9919L32.0625 21.375L30.6798 24.1404C30.5154 24.4687 30.0475 24.4687 29.8831 24.1404L28.5 21.375L25.7391 19.9945C25.4051 19.8275 25.4051 19.36 25.7391 19.193ZM55.2188 49.875H1.78125C0.797555 49.875 0 50.6766 0 51.6562C0 54.6064 2.39244 57 5.34375 57H51.6562C54.6076 57 57 54.6076 57 51.6562C57 50.6766 56.1984 49.875 55.2188 49.875Z" fill="white"/>
</svg>
