<svg width="68" height="58" viewBox="0 0 68 58" fill="none" xmlns="http://www.w3.org/2000/svg">
<path d="M9.08035 0.25C9.96771 0.516364 10.9051 0.5273 11.8088 0.688994C12.6556 0.839751 13.5117 0.938954 14.367 1.03425C14.6154 1.06159 14.7209 1.19673 14.8279 1.38029C18.2906 7.34889 22.8563 12.4411 27.6376 17.345C34.7295 24.6196 42.3368 31.3357 50.0958 37.8832C50.5113 38.2339 50.9355 38.576 51.3331 38.9463C51.5542 39.1517 51.676 39.1189 51.8604 38.8971C52.6509 37.9449 53.4687 37.0153 54.2576 36.0592C54.4646 35.8077 54.599 35.7312 54.8614 35.985C55.2247 36.335 55.8105 36.5818 55.955 36.995C56.0995 37.4082 55.6488 37.9058 55.4762 38.3745C55.2754 38.9158 55.0411 39.4431 54.8607 39.9945C54.5537 40.9374 54.7576 41.713 55.4801 42.3817C56.8455 43.6416 58.3023 44.7938 59.7216 45.9905C62.1728 48.0573 64.6297 50.1177 67.0923 52.1715C67.2329 52.2895 67.3892 52.3887 67.5384 52.4965V52.8347C66.5151 54.6274 65.2957 56.2639 63.7108 57.5996C63.0672 58.1401 63.0531 58.1292 62.4048 57.5894C58.7023 54.5056 55 51.4209 51.2979 48.3354C49.7607 47.0559 49.1209 47.0239 47.4493 48.1222C46.9025 48.4823 46.3495 48.8353 45.8129 49.2158C45.5879 49.372 45.4317 49.3626 45.2309 49.1767C44.8474 48.8228 44.2014 48.5432 44.1202 48.1401C44.0561 47.8277 44.674 47.366 44.9974 46.9778C45.3934 46.5029 45.7699 46.0061 46.2081 45.5718C46.5542 45.2281 46.4331 45.0547 46.1152 44.8071C45.5387 44.3587 45.0044 43.8549 44.4264 43.4081C44.1397 43.187 44.0819 42.9995 44.2358 42.6621C44.7162 41.6099 45.1372 40.5304 45.6293 39.4837C45.809 39.1017 45.7254 38.9088 45.4278 38.6557C41.3659 35.2086 37.304 31.7591 33.407 28.1284C28.0172 23.1113 22.8438 17.8957 18.3508 12.0435C16.4327 9.54871 14.6845 6.92785 13.118 4.1986C12.7634 3.86896 12.6345 3.4081 12.415 3.01753C12.5712 3.46122 12.9141 3.83772 13.0133 4.3228C13.9163 6.27562 15.031 8.11595 16.2097 9.91333C20.1146 15.878 24.8872 21.103 29.9646 26.0725C34.5646 30.5788 39.3998 34.8211 44.3373 38.9541C44.6818 39.2423 44.7279 39.4587 44.5076 39.8321C44.2359 40.3009 43.9963 40.7876 43.7905 41.2889C43.6343 41.6576 43.532 41.7247 43.1922 41.4365C39.4147 38.2339 35.6848 34.9758 32.0681 31.5896C27.8501 27.6371 23.7749 23.5378 20.0239 19.1322C16.2878 14.7446 12.868 10.1352 10.3911 4.89458C9.6826 3.39482 9.04129 1.86537 8.62964 0.25H9.08035Z" fill="#FDFEFE"/>
<path d="M54.2669 4.42142C52.7898 6.96226 51.1675 9.41593 49.4083 11.7703C46.2119 16.0235 42.6289 19.9393 38.8459 23.6707C38.5412 23.9715 38.2288 24.4808 37.9085 24.4894C37.5883 24.498 37.2602 23.998 36.9438 23.7082C36.4853 23.2927 36.0541 22.8443 35.5737 22.4584C35.2566 22.2007 35.2839 22.0515 35.5628 21.7835C38.1757 19.273 40.7253 16.7007 43.1476 14.0058C46.6626 10.1002 50.0019 6.05632 52.6539 1.49531C52.8296 1.19224 53.021 1.05944 53.3866 1.0157C55.0035 0.821981 56.6142 0.57905 58.2296 0.349399C58.2971 0.327273 58.3605 0.294006 58.417 0.250977H58.9802C56.9915 6.56874 53.392 11.9546 49.2997 17.0601C46.622 20.4009 43.7186 23.5372 40.7261 26.5945C40.43 26.8968 40.2753 26.9069 39.991 26.6086C39.6124 26.2167 39.2074 25.8513 38.7787 25.515C38.4975 25.2916 38.5209 25.1635 38.7678 24.9205C40.5433 23.1677 42.2828 21.3797 43.942 19.5144C47.9366 15.0213 51.5142 10.2361 54.2427 4.85494C54.2935 4.75574 54.3302 4.65029 54.3731 4.54796C54.4096 4.34594 54.487 4.1535 54.6004 3.98242C54.7129 3.81214 54.7871 3.61764 54.948 3.3169C54.6801 3.76996 54.57 4.16052 54.2669 4.42142Z" fill="white"/>
<path d="M12.8211 40.952C12.7805 39.8647 12.3407 39.0289 11.9775 38.1759C11.4667 36.9753 11.4674 37.0042 12.4462 36.1403C12.8368 35.7935 13.0406 35.7716 13.3836 36.2122C14.0866 37.1159 14.8677 37.9517 15.5879 38.8407C15.8269 39.1351 15.9605 39.1273 16.2354 38.8899C19.6966 35.8982 23.1742 32.9252 26.6315 29.928C26.9783 29.6273 27.1619 29.621 27.4712 29.9608C28.0516 30.5982 28.6702 31.2028 29.3006 31.7918C29.574 32.048 29.5638 32.1761 29.2772 32.4214C26.851 34.489 24.4451 36.5801 22.0189 38.6485C21.719 38.9039 21.6338 39.1039 21.8072 39.4812C22.2978 40.549 22.7297 41.6433 23.2133 42.7135C23.3468 43.0088 23.3109 43.1658 23.057 43.3642C22.4251 43.8641 21.8307 44.4109 21.1987 44.9108C20.9441 45.1123 20.9402 45.2381 21.1503 45.4763C21.8455 46.2637 22.5071 47.0792 23.2023 47.8658C23.4007 48.0908 23.3773 48.1954 23.1586 48.3884C21.9752 49.432 21.983 49.4359 20.6887 48.5891C20.1783 48.2397 19.6503 47.9167 19.1069 47.6213C18.3062 47.2081 17.5641 47.2581 16.8502 47.7885C15.3746 48.886 14.0108 50.1194 12.5993 51.2942C10.0226 53.4423 7.45297 55.6013 4.89035 57.7713C4.58415 58.0314 4.35138 58.04 4.05923 57.8119C2.39465 56.5121 1.14094 54.8702 0.0996998 53.0494C-0.076835 52.7369 -0.0221561 52.5088 0.289514 52.2503C4.05142 49.1211 7.80396 45.9799 11.5471 42.8268C11.914 42.5346 12.241 42.1956 12.5196 41.8183C12.7329 41.5152 12.8579 41.1965 12.8211 40.952Z" fill="white"/>
<path d="M23.9989 41.7327C23.6318 40.9867 23.2959 40.2798 22.935 39.5822C22.8296 39.3768 22.8679 39.2643 23.0389 39.1175C25.4302 37.0657 27.8166 35.0074 30.198 32.9427C30.3761 32.7864 30.4901 32.781 30.6612 32.9489C31.0892 33.3692 31.5204 33.791 31.9813 34.1737C32.2844 34.4252 32.2937 34.5643 31.9852 34.8385C29.8301 36.7342 27.689 38.6433 25.48 40.479C24.9918 40.8883 24.5106 41.3023 23.9989 41.7327Z" fill="white"/>
<path d="M13.0142 4.32221C12.6814 3.84025 12.4775 3.29737 12.3252 2.72559L13.1219 4.19801L13.0142 4.32221Z" fill="#CBC9C9"/>
<path d="M54.2671 4.42187L54.949 3.15723C54.8975 3.68839 54.6623 4.13207 54.3733 4.55154L54.2671 4.42187Z" fill="#D8D6D6"/>
</svg>
