<svg width="85" height="42" viewBox="0 0 85 42" fill="none" xmlns="http://www.w3.org/2000/svg">
<path d="M9.66289 0.814334L60.6835 23.816C61.0677 23.9893 61.3629 24.3131 61.5007 24.7112C61.6378 25.1086 61.6054 25.5461 61.4111 25.9194L59.0131 30.5096L59.0125 30.509C58.6646 31.1775 57.9986 31.6213 57.2475 31.6842C51.5075 32.1515 26.7808 32.2372 8.76077 1.80091C8.62173 1.53553 8.66363 1.21173 8.86616 0.99078C9.06806 0.769833 9.3874 0.699358 9.66358 0.814285L9.66289 0.814334Z" fill="white"/>
<path d="M82.2157 35.3344C81.5167 35.2671 80.8157 35.443 80.2316 35.8322L70.959 30.3797V30.3803C70.4041 30.0553 69.9882 29.5372 69.7914 28.9245C69.5946 28.3125 69.6308 27.649 69.8924 27.0611L71.3037 23.9057C71.5844 23.2835 71.312 22.5515 70.6923 22.2651C69.8873 21.8911 68.9674 21.8499 68.1318 22.1489C67.2956 22.4486 66.6119 23.0651 66.2271 23.8651L60.0635 36.8284V36.8277C59.6807 37.6391 59.6356 38.5693 59.9391 39.413C60.2425 40.2574 60.8692 40.9456 61.6813 41.3271L62.0368 41.496C62.3396 41.6389 62.6876 41.6528 63.0012 41.536C63.3155 41.4192 63.5688 41.1805 63.704 40.8738L65.4678 36.9807C65.7345 36.3851 66.2145 35.9103 66.8132 35.6512C67.4119 35.3915 68.0861 35.3655 68.7033 35.5782L78.9409 39.1089C79.1174 39.8441 79.5586 40.4885 80.1808 40.919C80.8024 41.3488 81.5611 41.5349 82.3115 41.4403C83.0619 41.3463 83.7508 40.9787 84.2466 40.4079C84.7431 39.8372 85.011 39.1032 84.9996 38.347C84.9881 37.5908 84.6986 36.8658 84.1863 36.3097C83.6733 35.7541 82.9736 35.4068 82.2206 35.3345L82.2157 35.3344Z" fill="white"/>
<path d="M3.21186 35.3354C3.91405 35.2662 4.61814 35.4421 5.20484 35.8332L14.4775 30.3807V30.3813C15.0324 30.0563 15.4483 29.5382 15.6451 28.9255C15.8419 28.3135 15.8057 27.65 15.5441 27.0621L14.1328 23.9067C13.8521 23.2845 14.1245 22.5524 14.7441 22.2661C15.5492 21.8921 16.4691 21.8508 17.3047 22.1499C18.1408 22.4496 18.8246 23.066 19.2094 23.8661L25.373 36.8294V36.8287C25.7558 37.6401 25.8009 38.5703 25.4974 39.414C25.1939 40.2584 24.5673 40.9466 23.7552 41.3281L23.3997 41.497C23.0968 41.6398 22.7489 41.6538 22.4353 41.537C22.121 41.4202 21.8677 41.1815 21.7325 40.8748L19.9599 36.9817C19.6932 36.3861 19.2132 35.9112 18.6145 35.6522C18.0158 35.3925 17.3416 35.3665 16.7245 35.5792L6.49188 39.1099C6.31602 39.8451 5.87412 40.4895 5.25256 40.92C4.63037 41.3498 3.87167 41.5359 3.12192 41.4412C2.37148 41.3473 1.68198 40.9797 1.18616 40.4089C0.690302 39.8381 0.422383 39.1042 0.433175 38.348C0.444603 37.5918 0.73412 36.8668 1.24711 36.3106C1.75946 35.7551 2.45975 35.4078 3.21213 35.3354L3.21186 35.3354Z" fill="white"/>
<path d="M25.422 24.5412C25.0912 24.3044 24.6487 24.2942 24.3078 24.5164C23.9668 24.7387 23.7967 25.1469 23.8792 25.5456C23.9084 25.6764 23.9548 25.8021 24.0176 25.9208L26.4156 30.5111L26.4163 30.5104C26.7642 31.179 27.4302 31.6228 28.1812 31.6856C30.6891 31.8672 33.209 31.8012 35.7047 31.4901C35.9587 31.4761 36.1682 31.2844 36.2037 31.0317C36.2393 30.7796 36.0914 30.5371 35.8501 30.4539C32.1658 28.8762 28.6681 26.8929 25.422 24.5412L25.422 24.5412Z" fill="white"/>
<path d="M75.7649 0.814706L47.5655 13.5342C47.2747 13.6656 47.0874 13.9551 47.0874 14.2745C47.0874 14.5938 47.2747 14.8833 47.5655 15.0148L59.3358 20.3211C60.0684 20.6526 60.9262 20.5357 61.5439 20.0208C66.7361 15.6871 71.9308 9.80093 76.6684 1.80091C76.8075 1.53553 76.7656 1.21173 76.563 0.99078C76.3611 0.769833 76.0418 0.699358 75.7656 0.814285L75.7649 0.814706Z" fill="white"/>
</svg>
