<svg width="41" height="53" viewBox="0 0 41 53" fill="none" xmlns="http://www.w3.org/2000/svg">
<path d="M36.4713 24.3066C35.3676 18.8791 33.6741 13.6046 28.5144 10.8145C24.4232 8.60256 19.1893 8.16937 14.8595 9.94491C14.6217 10.0426 14.3867 10.1463 14.1544 10.2573C4.59705 14.8176 3.7367 29.0958 8.66061 37.3206C8.97719 37.8492 9.48409 38.5303 9.47947 39.1759C9.47947 39.1791 9.48454 52.0357 9.48454 52.0357H27.023L27.0225 43.5876C32.3602 44.3249 35.2233 42.4475 35.2233 42.4475L35.5647 34.9514L39.4135 34.3883C39.1655 34.4247 36.655 25.2107 36.4712 24.3066L36.4713 24.3066ZM29.5231 27.5309C28.6112 27.5309 27.8716 26.7913 27.8716 25.8794C27.8716 24.9674 28.6112 24.2278 29.5231 24.2278C30.4351 24.2278 31.1747 24.9674 31.1747 25.8794C31.1747 26.7913 30.4351 27.5309 29.5231 27.5309Z" fill="white"/>
<path d="M19.6995 0.435547H21.6815V6.09074H19.6995V0.435547Z" fill="white"/>
<path d="M12.9106 3.09473L14.7423 7.02274L12.946 7.86005L11.1143 3.93204L12.9106 3.09473Z" fill="white"/>
<path d="M4.05577 6.71094L8.76993 10.5081L7.52666 12.0514L2.8125 8.25421L4.05577 6.71094Z" fill="white"/>
<path d="M4.19486 17.812L0 16.2255L0.700902 14.3721L4.89576 15.9586L4.19486 17.812Z" fill="white"/>
<path d="M41 15.8964L36.8051 17.4829L36.1042 15.6295L40.2991 14.043L41 15.8964Z" fill="white"/>
<path d="M28.5295 3.09473L30.3258 3.93204L28.4946 7.86005L26.6982 7.02274L28.5295 3.09473Z" fill="white"/>
<path d="M36.8214 7.05078L38.0896 8.57376L33.9261 12.041L32.658 10.518L36.8214 7.05078Z" fill="white"/>
</svg>
