<svg width="22" height="18" viewBox="0 0 22 18" fill="none" xmlns="http://www.w3.org/2000/svg">
<path d="M22 2.13074C21.1912 2.49268 20.3208 2.73682 19.4076 2.84608C20.3401 2.28406 21.055 1.39382 21.3922 0.331818C20.52 0.852925 19.5545 1.23105 18.526 1.43518C17.703 0.55213 16.5298 0 15.2316 0C12.7392 0 10.7184 2.03452 10.7184 4.54429C10.7184 4.89994 10.7582 5.24659 10.8354 5.57976C7.08414 5.39002 3.75799 3.58121 1.53178 0.831793C1.14325 1.50262 0.920853 2.28316 0.920853 3.11675C0.920853 4.69311 1.71756 6.08423 2.92869 6.89894C2.18915 6.87511 1.49293 6.67053 0.884234 6.33017C0.883787 6.34905 0.883787 6.36839 0.883787 6.38772C0.883787 8.58905 2.43968 10.4253 4.50468 10.8434C4.12598 10.9468 3.72718 11.0026 3.31543 11.0026C3.02426 11.0026 2.74157 10.9743 2.46603 10.9208C3.04078 12.726 4.70743 14.0402 6.68222 14.0766C5.13749 15.2955 3.19173 16.0221 1.07671 16.0221C0.712746 16.0221 0.353247 16.0005 0 15.9583C1.99801 17.2482 4.37026 18 6.9189 18C15.2213 18 19.7608 11.0759 19.7608 5.07079C19.7608 4.87386 19.7568 4.67737 19.7483 4.48224C20.6299 3.84288 21.3953 3.04211 22 2.13074Z" fill="white"/>
</svg>
