<svg width="19" height="19" viewBox="0 0 19 19" fill="none" xmlns="http://www.w3.org/2000/svg">
<path d="M9.52591 4.59521C6.94185 4.59521 4.80078 6.69937 4.80078 9.32034C4.80078 11.9413 6.90494 14.0455 9.52591 14.0455C12.1469 14.0455 14.251 11.9044 14.251 9.32034C14.251 6.73629 12.11 4.59521 9.52591 4.59521ZM9.52591 12.3474C7.86473 12.3474 6.49887 10.9815 6.49887 9.32034C6.49887 7.65916 7.86473 6.29331 9.52591 6.29331C11.1871 6.29331 12.5529 7.65916 12.5529 9.32034C12.5529 10.9815 11.1871 12.3474 9.52591 12.3474Z" fill="white"/>
<path d="M14.4353 5.55465C15.0265 5.55465 15.5058 5.07535 15.5058 4.48411C15.5058 3.89287 15.0265 3.41357 14.4353 3.41357C13.844 3.41357 13.3647 3.89287 13.3647 4.48411C13.3647 5.07535 13.844 5.55465 14.4353 5.55465Z" fill="white"/>
<path d="M17.2041 1.71566C16.2443 0.718959 14.8785 0.202148 13.328 0.202148H5.72353C2.51192 0.202148 0.37085 2.34322 0.37085 5.55483V13.1224C0.37085 14.7098 0.88766 16.0756 1.92128 17.0723C2.91799 18.0321 4.24693 18.512 5.76045 18.512H13.2911C14.8785 18.512 16.2074 17.9952 17.1672 17.0723C18.1639 16.1125 18.6807 14.7467 18.6807 13.1593V5.55483C18.6807 4.0044 18.1639 2.67546 17.2041 1.71566ZM17.0564 13.1593C17.0564 14.3037 16.6504 15.2266 15.9859 15.8541C15.3214 16.4817 14.3986 16.8139 13.2911 16.8139H5.76045C4.65299 16.8139 3.73012 16.4817 3.06565 15.8541C2.40118 15.1897 2.06894 14.2668 2.06894 13.1224V5.55483C2.06894 4.44738 2.40118 3.5245 3.06565 2.86003C3.6932 2.23248 4.65299 1.90024 5.76045 1.90024H13.3649C14.4724 1.90024 15.3953 2.23248 16.0597 2.89695C16.6873 3.56142 17.0564 4.48429 17.0564 5.55483V13.1593Z" fill="white"/>
</svg>
