<svg width="22" height="15" viewBox="0 0 22 15" fill="none" xmlns="http://www.w3.org/2000/svg">
<path d="M21.5404 2.34228C21.2874 1.42027 20.542 0.694252 19.5954 0.447823C17.8796 -1.19741e-07 11 0 11 0C11 0 4.12041 -1.19741e-07 2.40458 0.447823C1.45815 0.694252 0.712595 1.42027 0.459638 2.34228C0 4.01338 0 7.50012 0 7.50012C0 7.50012 0 10.9868 0.459638 12.6577C0.712595 13.5797 1.45815 14.306 2.40458 14.5523C4.12041 15 11 15 11 15C11 15 17.8796 15 19.5954 14.5523C20.542 14.306 21.2874 13.5797 21.5404 12.6577C22 10.9868 22 7.50012 22 7.50012C22 7.50012 22 4.01338 21.5404 2.34228ZM8.79989 10.7145V4.28576L14.5156 7.50012L8.79989 10.7145Z" fill="white"/>
</svg>
